<svg id="Layer_1" data-name="Layer 1" xmlns="http://www.w3.org/2000/svg" viewBox="0 0 271.62 219.75"><defs><style>.cls-1{fill:none;stroke:#00bf63;stroke-linecap:round;stroke-linejoin:round;stroke-width:13px;}</style></defs><path class="cls-1" d="M980.11,563.57c-14.51,41-60.35,62.71-102.4,48.58a79.45,79.45,0,0,1-50.28-49.79" transform="translate(-767.88 -403.21)"/><path class="cls-1" d="M988.31,514.29l-12.26-4.35a251.76,251.76,0,0,0-144.15,0l-12.26,4.35V559.1l28.26,11.8a35.13,35.13,0,0,0,40.74-11.8,17.34,17.34,0,0,1,23-7.5,17,17,0,0,1,7.7,7.5,35.13,35.13,0,0,0,40.74,11.8l28.26-11.8Z" transform="translate(-767.88 -403.21)"/><path class="cls-1" d="M904,409.78v88.78" transform="translate(-767.88 -403.21)"/><path class="cls-1" d="M1012.66,594.85c19.71,0,20.34-37.57,20.34-65.49,0-26.71.66-48.36-17.87-50.18-28.2-59.81-100.83-86-162.23-58.56a120.77,120.77,0,0,0-60.11,58.56c-18.74,1.5-18.41,23.32-18.41,50.25,0,27.92.65,65.5,20.34,65.5" transform="translate(-767.88 -403.21)"/></svg>